<svg id="svg2" xmlns="http://www.w3.org/2000/svg" viewBox="0 0 129.53 256.69"><g id="layer1"><path id="text2517" d="M9,208.3l24.11-3.46q3.74,17.31,11.86,24.3t22.11,7q13.57,0,21.24-6.93T96,213a19.08,19.08,0,0,0-4.8-12.52q-8.25-10-45.28-32.63-19.71-12.12-27.51-19A56.83,56.83,0,0,1,5.68,132.64,41.1,41.1,0,0,1,.75,113.2,37.09,37.09,0,0,1,8.75,90q8-10.38,22-14.52-9.45-9-13.32-16.71a35.83,35.83,0,0,1-3.86-16.32q0-17,13.32-29.57T62.16.38q24.9,0,38.89,11.86T117.83,46.6l-24.9,2.53q-2.81-16.25-9.79-22.64t-18.85-6.4q-12.26,0-19.78,6.6T37,41.27a19.76,19.76,0,0,0,4.8,12.79q7.45,9.06,40.76,29.3,20.91,12.8,28.23,18.78,9.47,8,13.92,16.52a39.23,39.23,0,0,1,4.46,18.51,36.79,36.79,0,0,1-9.72,25.71q-5.59,6.12-20.51,12.39,10.65,8.11,15.92,17.45a40,40,0,0,1,5.26,20,40.59,40.59,0,0,1-6.66,22.18,42.26,42.26,0,0,1-19.18,16,66.13,66.13,0,0,1-27,5.53q-25.44,0-40.36-12.72T9,208.3Zm77.92-41.82q9.85-5.07,14.72-11.79t4.86-13.12q0-7.59-6.93-16t-30-22.51Q51.37,91.89,42.44,84.69,31.66,90.83,27.06,97a22.11,22.11,0,0,0-4.59,13.58q0,8.4,6.12,16t27.57,20.24Q74,157.29,86.93,166.48Z"/></g></svg>